<svg width="19" height="20" viewBox="0 0 19 20" fill="none" xmlns="http://www.w3.org/2000/svg">
<path d="M2.40069 8.28239H4.11794V12.8617H2.97311C2.82129 12.8617 2.6757 12.922 2.56835 13.0294C2.461 13.1367 2.40069 13.2823 2.40069 13.4341C2.40069 13.5859 2.461 13.7315 2.56835 13.8389C2.6757 13.9462 2.82129 14.0066 2.97311 14.0066H16.7111C16.8629 14.0066 17.0085 13.9462 17.1158 13.8389C17.2232 13.7315 17.2835 13.5859 17.2835 13.4341C17.2835 13.2823 17.2232 13.1367 17.1158 13.0294C17.0085 12.922 16.8629 12.8617 16.7111 12.8617H15.5662V8.28239H17.2835C17.408 8.28227 17.5291 8.24153 17.6284 8.16635C17.7277 8.09117 17.7998 7.98565 17.8337 7.86581C17.8676 7.74597 17.8615 7.61834 17.8163 7.50228C17.7711 7.38622 17.6893 7.28807 17.5833 7.22271L10.1419 2.64338C10.0517 2.58794 9.94795 2.55859 9.84209 2.55859C9.73624 2.55859 9.63246 2.58794 9.54229 2.64338L2.10089 7.22271C1.99487 7.28807 1.91306 7.38622 1.86786 7.50228C1.82267 7.61834 1.81657 7.74597 1.85047 7.86581C1.88438 7.98565 1.95644 8.09117 2.05574 8.16635C2.15504 8.24153 2.27614 8.28227 2.40069 8.28239ZM5.26277 8.28239H7.55243V12.8617H5.26277V8.28239ZM10.9869 8.28239V12.8617H8.69726V8.28239H10.9869ZM14.4214 12.8617H12.1318V8.28239H14.4214V12.8617ZM9.84209 3.80253L15.2614 7.13756H4.42275L9.84209 3.80253ZM18.4283 15.7238C18.4283 15.8756 18.368 16.0212 18.2607 16.1286C18.1533 16.2359 18.0077 16.2962 17.8559 16.2962H1.82827C1.67646 16.2962 1.53086 16.2359 1.42352 16.1286C1.31617 16.0212 1.25586 15.8756 1.25586 15.7238C1.25586 15.572 1.31617 15.4264 1.42352 15.319C1.53086 15.2117 1.67646 15.1514 1.82827 15.1514H17.8559C18.0077 15.1514 18.1533 15.2117 18.2607 15.319C18.368 15.4264 18.4283 15.572 18.4283 15.7238Z" fill="#343330"/>
</svg>
