<svg width="22" height="22" viewBox="0 0 22 22" fill="none" xmlns="http://www.w3.org/2000/svg">
<path d="M5.90407 16.9253C6.97185 16.9253 7.83745 16.0597 7.83745 14.992C7.83745 13.9242 6.97185 13.0586 5.90407 13.0586C4.8363 13.0586 3.9707 13.9242 3.9707 14.992C3.9707 16.0597 4.8363 16.9253 5.90407 16.9253Z" stroke="white" stroke-width="1.28891" stroke-linecap="round" stroke-linejoin="round"/>
<path d="M16.2146 16.9253C17.2824 16.9253 18.148 16.0597 18.148 14.992C18.148 13.9242 17.2824 13.0586 16.2146 13.0586C15.1469 13.0586 14.2812 13.9242 14.2812 14.992C14.2812 16.0597 15.1469 16.9253 16.2146 16.9253Z" stroke="#EEF7F9" stroke-width="1.28891" stroke-linecap="round" stroke-linejoin="round"/>
<path d="M7.83789 14.9922H14.2825" stroke="#EEF7F9" stroke-width="1.28891" stroke-linecap="round" stroke-linejoin="round"/>
<path d="M18.1485 14.9912H20.0818C20.2528 14.9912 20.4167 14.9233 20.5375 14.8025C20.6584 14.6816 20.7263 14.5177 20.7263 14.3468V11.1245C20.7263 10.9536 20.6584 10.7896 20.5375 10.6688C20.4167 10.5479 20.2528 10.48 20.0818 10.48H17.504L13.8258 6.80178C13.705 6.68115 13.5413 6.61336 13.3706 6.61328H4.31519C4.2092 6.61334 4.10486 6.63955 4.01142 6.68957C3.91797 6.7396 3.83831 6.8119 3.77949 6.90006L1.39258 10.48V14.3468C1.39258 14.5177 1.46048 14.6816 1.58134 14.8025C1.70219 14.9233 1.86611 14.9912 2.03704 14.9912H3.97041" stroke="#EEF7F9" stroke-width="1.28891" stroke-linecap="round" stroke-linejoin="round"/>
<path d="M17.504 10.4805H1.39258" stroke="#EEF7F9" stroke-width="1.28891" stroke-linecap="round" stroke-linejoin="round"/>
</svg>
