<svg width="19" height="19" viewBox="0 0 19 19" fill="none" xmlns="http://www.w3.org/2000/svg">
<path d="M17.6058 5.29725L15.9183 3.64069C15.7075 3.43052 15.4219 3.3125 15.1242 3.3125C14.8264 3.3125 14.5409 3.43052 14.33 3.64069L7.81272 10.0778L5.23296 7.57468C5.02165 7.36518 4.73595 7.24793 4.4384 7.24859C4.14085 7.24925 3.85568 7.36776 3.6453 7.57819L1.9578 9.26569C1.7472 9.47662 1.62891 9.76251 1.62891 10.0606C1.62891 10.3586 1.7472 10.6445 1.9578 10.8555L6.99358 15.918C7.09805 16.0224 7.22208 16.1053 7.35859 16.1619C7.4951 16.2184 7.64141 16.2476 7.78917 16.2476C7.93693 16.2476 8.08324 16.2184 8.21975 16.1619C8.35625 16.1053 8.48028 16.0224 8.58475 15.918L17.6094 6.89124C17.714 6.78649 17.797 6.6621 17.8535 6.5252C17.91 6.38831 17.9389 6.24161 17.9386 6.09352C17.9383 5.94542 17.9087 5.79885 17.8516 5.66221C17.7945 5.52557 17.711 5.40154 17.6058 5.29725ZM7.786 15.1241L2.75022 10.0616L4.43772 8.37413C4.43977 8.37582 4.44165 8.37771 4.44335 8.37975L7.42108 11.2689C7.5262 11.3717 7.66741 11.4293 7.81448 11.4293C7.96154 11.4293 8.10276 11.3717 8.20788 11.2689L15.1294 4.43663L16.8127 6.096L7.786 15.1241Z" fill="white"/>
</svg>
