<svg width="24" height="25" viewBox="0 0 24 25" fill="none" xmlns="http://www.w3.org/2000/svg">
<path d="M19.5 4.25H4.5C4.08579 4.25 3.75 4.58579 3.75 5V20C3.75 20.4142 4.08579 20.75 4.5 20.75H19.5C19.9142 20.75 20.25 20.4142 20.25 20V5C20.25 4.58579 19.9142 4.25 19.5 4.25Z" stroke="#7A7A7A" stroke-width="2" stroke-linecap="round" stroke-linejoin="round"/>
<path d="M16.5 2.75V5.75" stroke="#7A7A7A" stroke-width="2" stroke-linecap="round" stroke-linejoin="round"/>
<path d="M7.5 2.75V5.75" stroke="#7A7A7A" stroke-width="2" stroke-linecap="round" stroke-linejoin="round"/>
<path d="M12 15.3631L14.7816 17L14.025 13.9447L16.5 11.9009L13.2516 11.6506L12 8.75L10.7484 11.6506L7.5 11.9009L9.975 13.9447L9.21844 17L12 15.3631Z" stroke="#7A7A7A" stroke-width="2" stroke-linecap="round" stroke-linejoin="round"/>
</svg>
