<svg width="19" height="20" viewBox="0 0 19 20" fill="none" xmlns="http://www.w3.org/2000/svg">
<path d="M13.2776 1.98438H6.40865C5.95321 1.98438 5.51642 2.1653 5.19438 2.48735C4.87233 2.80939 4.69141 3.24618 4.69141 3.70162V16.2948C4.69141 16.7502 4.87233 17.187 5.19438 17.509C5.51642 17.8311 5.95321 18.012 6.40865 18.012H13.2776C13.7331 18.012 14.1699 17.8311 14.4919 17.509C14.814 17.187 14.9949 16.7502 14.9949 16.2948V3.70162C14.9949 3.24618 14.814 2.80939 14.4919 2.48735C14.1699 2.1653 13.7331 1.98438 13.2776 1.98438ZM5.83624 5.41887H13.8501V14.5775H5.83624V5.41887ZM6.40865 3.12921H13.2776C13.4295 3.12921 13.5751 3.18951 13.6824 3.29686C13.7897 3.40421 13.8501 3.54981 13.8501 3.70162V4.27404H5.83624V3.70162C5.83624 3.54981 5.89655 3.40421 6.00389 3.29686C6.11124 3.18951 6.25684 3.12921 6.40865 3.12921ZM13.2776 16.8672H6.40865C6.25684 16.8672 6.11124 16.8069 6.00389 16.6995C5.89655 16.5922 5.83624 16.4466 5.83624 16.2948V15.7224H13.8501V16.2948C13.8501 16.4466 13.7897 16.5922 13.6824 16.6995C13.5751 16.8069 13.4295 16.8672 13.2776 16.8672Z" fill="#121212"/>
</svg>
