<svg width="56" height="47" viewBox="0 0 56 47" fill="none" xmlns="http://www.w3.org/2000/svg">
<path d="M44.4167 25.5C44.4167 37.3741 34.5856 47 22.4583 47C10.3311 47 0.5 37.3741 0.5 25.5C0.5 13.6259 10.3311 4 22.4583 4C34.5856 4 44.4167 13.6259 44.4167 25.5ZM4.89167 25.5C4.89167 34.9993 12.7565 42.7 22.4583 42.7C32.1601 42.7 40.025 34.9993 40.025 25.5C40.025 16.0007 32.1601 8.3 22.4583 8.3C12.7565 8.3 4.89167 16.0007 4.89167 25.5Z" fill="#E59E20"/>
<path d="M12.7773 22.4946L22.694 32.2043L51.4996 4" stroke="#58AAC0" stroke-width="8" stroke-linecap="round" stroke-linejoin="round"/>
</svg>
