<svg width="19" height="20" viewBox="0 0 19 20" fill="none" xmlns="http://www.w3.org/2000/svg">
<g clip-path="url(#clip0_1527_641)">
<path d="M9.84127 3.12891C13.9566 3.12891 17.3804 6.0902 18.0986 9.99789C17.3811 13.9056 13.9566 16.8669 9.84127 16.8669C5.72598 16.8669 2.30218 13.9056 1.58398 9.99789C2.30141 6.0902 5.72598 3.12891 9.84127 3.12891ZM9.84127 15.3404C11.3978 15.3401 12.9082 14.8114 14.1251 13.8408C15.3421 12.8703 16.1935 11.5154 16.5401 9.99789C16.1922 8.48161 15.3402 7.12819 14.1234 6.15891C12.9066 5.18964 11.3969 4.66186 9.84127 4.66186C8.2856 4.66186 6.77594 5.18964 5.55913 6.15891C4.34231 7.12819 3.49033 8.48161 3.14248 9.99789C3.48906 11.5154 4.34049 12.8703 5.55742 13.8408C6.77436 14.8114 8.28471 15.3401 9.84127 15.3404ZM9.84127 13.4324C8.93039 13.4324 8.05681 13.0705 7.41272 12.4264C6.76863 11.7824 6.40678 10.9088 6.40678 9.99789C6.40678 9.08701 6.76863 8.21343 7.41272 7.56934C8.05681 6.92525 8.93039 6.5634 9.84127 6.5634C10.7522 6.5634 11.6257 6.92525 12.2698 7.56934C12.9139 8.21343 13.2758 9.08701 13.2758 9.99789C13.2758 10.9088 12.9139 11.7824 12.2698 12.4264C11.6257 13.0705 10.7522 13.4324 9.84127 13.4324ZM9.84127 11.9059C10.3473 11.9059 10.8326 11.7049 11.1905 11.3471C11.5483 10.9893 11.7493 10.5039 11.7493 9.99789C11.7493 9.49185 11.5483 9.00653 11.1905 8.6487C10.8326 8.29087 10.3473 8.08984 9.84127 8.08984C9.33522 8.08984 8.8499 8.29087 8.49207 8.6487C8.13425 9.00653 7.93322 9.49185 7.93322 9.99789C7.93322 10.5039 8.13425 10.9893 8.49207 11.3471C8.8499 11.7049 9.33522 11.9059 9.84127 11.9059Z" fill="#428090"/>
</g>
<defs>
<clipPath id="clip0_1527_641">
<rect width="18.3173" height="18.3173" fill="white" transform="translate(0.683594 0.839844)"/>
</clipPath>
</defs>
</svg>
