<svg width="19" height="20" viewBox="0 0 19 20" fill="none" xmlns="http://www.w3.org/2000/svg">
<path d="M9.8418 2.55859C8.37003 2.55859 6.93131 2.99502 5.70758 3.8127C4.48384 4.63037 3.53006 5.79256 2.96684 7.1523C2.40361 8.51203 2.25625 10.0083 2.54338 11.4517C2.83051 12.8952 3.53923 14.2212 4.57993 15.2619C5.62063 16.3026 6.94656 17.0113 8.39005 17.2984C9.83354 17.5855 11.3298 17.4382 12.6895 16.875C14.0492 16.3117 15.2114 15.358 16.0291 14.1342C16.8468 12.9105 17.2832 11.4718 17.2832 10C17.2811 8.02705 16.4964 6.13551 15.1014 4.74043C13.7063 3.34535 11.8147 2.56068 9.8418 2.55859ZM10.4142 16.2701V11.7172H12.1315C12.2833 11.7172 12.4289 11.6569 12.5362 11.5496C12.6436 11.4422 12.7039 11.2966 12.7039 11.1448C12.7039 10.993 12.6436 10.8474 12.5362 10.7401C12.4289 10.6327 12.2833 10.5724 12.1315 10.5724H10.4142V8.85517C10.4142 8.55154 10.5348 8.26035 10.7495 8.04565C10.9642 7.83095 11.2554 7.71033 11.559 7.71033H12.7039C12.8557 7.71033 13.0013 7.65003 13.1086 7.54268C13.216 7.43533 13.2763 7.28973 13.2763 7.13792C13.2763 6.9861 13.216 6.84051 13.1086 6.73316C13.0013 6.62581 12.8557 6.5655 12.7039 6.5655H11.559C10.9518 6.5655 10.3694 6.80673 9.94001 7.23613C9.51061 7.66552 9.26938 8.24791 9.26938 8.85517V10.5724H7.55213C7.40032 10.5724 7.25472 10.6327 7.14738 10.7401C7.04003 10.8474 6.97972 10.993 6.97972 11.1448C6.97972 11.2966 7.04003 11.4422 7.14738 11.5496C7.25472 11.6569 7.40032 11.7172 7.55213 11.7172H9.26938V16.2701C7.65574 16.1228 6.161 15.3591 5.09607 14.1378C4.03114 12.9166 3.47802 11.3318 3.55175 9.71309C3.62548 8.09442 4.32038 6.56647 5.49192 5.44708C6.66346 4.32769 8.22144 3.70302 9.8418 3.70302C11.4622 3.70302 13.0201 4.32769 14.1917 5.44708C15.3632 6.56647 16.0581 8.09442 16.1318 9.71309C16.2056 11.3318 15.6525 12.9166 14.5875 14.1378C13.5226 15.3591 12.0279 16.1228 10.4142 16.2701Z" fill="#343330"/>
</svg>
