<svg width="20" height="20" viewBox="0 0 20 20" fill="none" xmlns="http://www.w3.org/2000/svg">
<path d="M10.5724 9.42548V16.2945C10.5724 16.4463 10.5121 16.5919 10.4048 16.6992C10.2974 16.8066 10.1518 16.8669 10 16.8669C9.84818 16.8669 9.70259 16.8066 9.59524 16.6992C9.48789 16.5919 9.42758 16.4463 9.42758 16.2945V9.42548C9.42758 9.27366 9.48789 9.12807 9.59524 9.02072C9.70259 8.91337 9.84818 8.85306 10 8.85306C10.1518 8.85306 10.2974 8.91337 10.4048 9.02072C10.5121 9.12807 10.5724 9.27366 10.5724 9.42548ZM15.1517 14.5772C14.9999 14.5772 14.8543 14.6375 14.747 14.7449C14.6396 14.8522 14.5793 14.9978 14.5793 15.1496V16.2945C14.5793 16.4463 14.6396 16.5919 14.747 16.6992C14.8543 16.8066 14.9999 16.8669 15.1517 16.8669C15.3036 16.8669 15.4491 16.8066 15.5565 16.6992C15.6638 16.5919 15.7242 16.4463 15.7242 16.2945V15.1496C15.7242 14.9978 15.6638 14.8522 15.5565 14.7449C15.4491 14.6375 15.3036 14.5772 15.1517 14.5772ZM16.869 12.2876H15.7242V3.70132C15.7242 3.54951 15.6638 3.40391 15.5565 3.29656C15.4491 3.18921 15.3036 3.12891 15.1517 3.12891C14.9999 3.12891 14.8543 3.18921 14.747 3.29656C14.6396 3.40391 14.5793 3.54951 14.5793 3.70132V12.2876H13.4345C13.2827 12.2876 13.1371 12.3479 13.0297 12.4552C12.9224 12.5626 12.8621 12.7082 12.8621 12.86C12.8621 13.0118 12.9224 13.1574 13.0297 13.2647C13.1371 13.3721 13.2827 13.4324 13.4345 13.4324H16.869C17.0208 13.4324 17.1664 13.3721 17.2737 13.2647C17.3811 13.1574 17.4414 13.0118 17.4414 12.86C17.4414 12.7082 17.3811 12.5626 17.2737 12.4552C17.1664 12.3479 17.0208 12.2876 16.869 12.2876ZM4.84826 12.2876C4.69644 12.2876 4.55085 12.3479 4.4435 12.4552C4.33615 12.5626 4.27584 12.7082 4.27584 12.86V16.2945C4.27584 16.4463 4.33615 16.5919 4.4435 16.6992C4.55085 16.8066 4.69644 16.8669 4.84826 16.8669C5.00007 16.8669 5.14567 16.8066 5.25302 16.6992C5.36036 16.5919 5.42067 16.4463 5.42067 16.2945V12.86C5.42067 12.7082 5.36036 12.5626 5.25302 12.4552C5.14567 12.3479 5.00007 12.2876 4.84826 12.2876ZM6.5655 9.99789H5.42067V3.70132C5.42067 3.54951 5.36036 3.40391 5.25302 3.29656C5.14567 3.18921 5.00007 3.12891 4.84826 3.12891C4.69644 3.12891 4.55085 3.18921 4.4435 3.29656C4.33615 3.40391 4.27584 3.54951 4.27584 3.70132V9.99789H3.13101C2.9792 9.99789 2.8336 10.0582 2.72625 10.1656C2.6189 10.2729 2.55859 10.4185 2.55859 10.5703C2.55859 10.7221 2.6189 10.8677 2.72625 10.9751C2.8336 11.0824 2.9792 11.1427 3.13101 11.1427H6.5655C6.71732 11.1427 6.86291 11.0824 6.97026 10.9751C7.07761 10.8677 7.13792 10.7221 7.13792 10.5703C7.13792 10.4185 7.07761 10.2729 6.97026 10.1656C6.86291 10.0582 6.71732 9.99789 6.5655 9.99789ZM11.7172 6.5634H10.5724V3.70132C10.5724 3.54951 10.5121 3.40391 10.4048 3.29656C10.2974 3.18921 10.1518 3.12891 10 3.12891C9.84818 3.12891 9.70259 3.18921 9.59524 3.29656C9.48789 3.40391 9.42758 3.54951 9.42758 3.70132V6.5634H8.28275C8.13094 6.5634 7.98534 6.62371 7.87799 6.73106C7.77064 6.83841 7.71033 6.984 7.71033 7.13582C7.71033 7.28763 7.77064 7.43323 7.87799 7.54057C7.98534 7.64792 8.13094 7.70823 8.28275 7.70823H11.7172C11.8691 7.70823 12.0147 7.64792 12.122 7.54057C12.2294 7.43323 12.2897 7.28763 12.2897 7.13582C12.2897 6.984 12.2294 6.83841 12.122 6.73106C12.0147 6.62371 11.8691 6.5634 11.7172 6.5634Z" fill="#7A7A7A"/>
</svg>
