<svg width="12" height="12" viewBox="0 0 12 12" fill="none" xmlns="http://www.w3.org/2000/svg">
<circle cx="5.66732" cy="6.0013" r="5.33333" stroke="#EF6824" stroke-width="0.666667"/>
<path d="M5.36373 8.94838V4.5306H5.9424V8.94838H5.36373ZM5.65617 4.06394C5.55247 4.06394 5.46536 4.02868 5.39484 3.95816C5.32432 3.88764 5.28906 3.8026 5.28906 3.70305C5.28906 3.60349 5.32432 3.51846 5.39484 3.44794C5.46536 3.37327 5.55247 3.33594 5.65617 3.33594C5.75573 3.33594 5.84077 3.37327 5.91128 3.44794C5.9818 3.51846 6.01706 3.60349 6.01706 3.70305C6.01706 3.8026 5.9818 3.88764 5.91128 3.95816C5.84077 4.02868 5.75573 4.06394 5.65617 4.06394Z" fill="#EF6824"/>
</svg>
