<svg width="19" height="20" viewBox="0 0 19 20" fill="none" xmlns="http://www.w3.org/2000/svg">
<path d="M9.84179 6.5655C9.16252 6.5655 8.49849 6.76693 7.93369 7.14432C7.36889 7.52171 6.92868 8.0581 6.66874 8.68567C6.40879 9.31324 6.34077 10.0038 6.47329 10.67C6.60581 11.3363 6.93292 11.9482 7.41324 12.4286C7.89356 12.9089 8.50553 13.236 9.17176 13.3685C9.83798 13.501 10.5285 13.433 11.1561 13.1731C11.7837 12.9131 12.3201 12.4729 12.6975 11.9081C13.0749 11.3433 13.2763 10.6793 13.2763 10C13.2753 9.0894 12.9132 8.21638 12.2693 7.57249C11.6254 6.9286 10.7524 6.56645 9.84179 6.5655ZM9.84179 12.2897C9.38894 12.2897 8.94626 12.1554 8.56973 11.9038C8.19319 11.6522 7.89972 11.2946 7.72642 10.8762C7.55312 10.4578 7.50778 9.99746 7.59613 9.55331C7.68447 9.10916 7.90254 8.70118 8.22276 8.38096C8.54297 8.06075 8.95095 7.84268 9.3951 7.75433C9.83925 7.66598 10.2996 7.71133 10.718 7.88462C11.1364 8.05792 11.494 8.3514 11.7456 8.72793C11.9972 9.10446 12.1315 9.54714 12.1315 10C12.1315 10.6073 11.8902 11.1896 11.4608 11.619C11.0314 12.0484 10.4491 12.2897 9.84179 12.2897ZM13.2763 2.55859H6.4073C5.34495 2.55973 4.32644 2.98225 3.57524 3.73345C2.82405 4.48464 2.40153 5.50315 2.40039 6.5655V13.4345C2.40153 14.4968 2.82405 15.5154 3.57524 16.2665C4.32644 17.0177 5.34495 17.4403 6.4073 17.4414H13.2763C14.3386 17.4403 15.3572 17.0177 16.1083 16.2665C16.8595 15.5154 17.2821 14.4968 17.2832 13.4345V6.5655C17.2821 5.50315 16.8595 4.48464 16.1083 3.73345C15.3572 2.98225 14.3386 2.55973 13.2763 2.55859ZM16.1384 13.4345C16.1384 14.1936 15.8368 14.9215 15.3001 15.4583C14.7633 15.995 14.0354 16.2966 13.2763 16.2966H6.4073C5.64823 16.2966 4.92025 15.995 4.38351 15.4583C3.84676 14.9215 3.54522 14.1936 3.54522 13.4345V6.5655C3.54522 5.80643 3.84676 5.07845 4.38351 4.54171C4.92025 4.00496 5.64823 3.70343 6.4073 3.70343H13.2763C14.0354 3.70343 14.7633 4.00496 15.3001 4.54171C15.8368 5.07845 16.1384 5.80643 16.1384 6.5655V13.4345ZM14.4211 6.2793C14.4211 6.44912 14.3708 6.61512 14.2764 6.75632C14.1821 6.89752 14.048 7.00757 13.8911 7.07256C13.7342 7.13755 13.5615 7.15455 13.395 7.12142C13.2284 7.08829 13.0754 7.00651 12.9554 6.88643C12.8353 6.76635 12.7535 6.61336 12.7204 6.4468C12.6872 6.28025 12.7042 6.10761 12.7692 5.95071C12.8342 5.79382 12.9443 5.65972 13.0855 5.56538C13.2267 5.47103 13.3927 5.42067 13.5625 5.42067C13.7902 5.42067 14.0086 5.51113 14.1696 5.67216C14.3307 5.83318 14.4211 6.05157 14.4211 6.2793Z" fill="#121212"/>
</svg>
