<svg width="24" height="25" viewBox="0 0 24 25" fill="none" xmlns="http://www.w3.org/2000/svg">
<path d="M0.958984 19.2481C1.70813 18.0962 2.73311 17.1497 3.94086 16.4945C5.14861 15.8393 6.50089 15.4961 7.87492 15.4961C9.24896 15.4961 10.6012 15.8393 11.809 16.4945C13.0167 17.1497 14.0417 18.0962 14.7909 19.2481" stroke="#7A7A7A" stroke-width="1.5" stroke-linecap="round" stroke-linejoin="round"/>
<path d="M16.125 15.5C17.499 15.4992 18.8513 15.8418 20.0592 16.4967C21.267 17.1517 22.292 18.0981 23.0409 19.25" stroke="#7A7A7A" stroke-width="1.5" stroke-linecap="round" stroke-linejoin="round"/>
<path d="M7.875 15.5C10.5674 15.5 12.75 13.3174 12.75 10.625C12.75 7.93261 10.5674 5.75 7.875 5.75C5.18261 5.75 3 7.93261 3 10.625C3 13.3174 5.18261 15.5 7.875 15.5Z" stroke="#7A7A7A" stroke-width="1.5" stroke-linecap="round" stroke-linejoin="round"/>
<path d="M14.3145 6.09687C14.9813 5.8309 15.6987 5.7155 16.4153 5.75893C17.1319 5.80235 17.8301 6.00352 18.46 6.34806C19.0899 6.69261 19.6359 7.17202 20.059 7.75204C20.4821 8.33206 20.7718 8.99838 20.9076 9.70338C21.0433 10.4084 21.0216 11.1346 20.8441 11.8303C20.6666 12.526 20.3376 13.1738 19.8807 13.7276C19.4238 14.2814 18.8502 14.7274 18.2009 15.0338C17.5516 15.3402 16.8427 15.4994 16.1248 15.5" stroke="#7A7A7A" stroke-width="1.5" stroke-linecap="round" stroke-linejoin="round"/>
</svg>
