<svg width="19" height="19" viewBox="0 0 19 19" fill="none" xmlns="http://www.w3.org/2000/svg">
<path d="M15.3984 4.74884L5.0949 15.0523C4.9875 15.1597 4.84182 15.2201 4.68992 15.2201C4.53802 15.2201 4.39235 15.1597 4.28494 15.0523C4.17753 14.9449 4.11719 14.7992 4.11719 14.6473C4.11719 14.4954 4.17753 14.3498 4.28494 14.2424L14.5884 3.93888C14.6957 3.83147 14.8413 3.77109 14.9931 3.77102C15.145 3.77095 15.2906 3.8312 15.398 3.93852C15.5054 4.04583 15.5658 4.19142 15.5659 4.34325C15.566 4.49508 15.5057 4.64072 15.3984 4.74813V4.74884ZM4.29925 7.59661C3.81619 7.11346 3.54485 6.45821 3.54492 5.775C3.54499 5.0918 3.81646 4.4366 4.2996 3.95354C4.78275 3.47049 5.438 3.19915 6.12121 3.19922C6.80442 3.19929 7.45962 3.47075 7.94267 3.9539C8.42573 4.43705 8.69706 5.0923 8.697 5.77551C8.69693 6.45872 8.42546 7.11392 7.94232 7.59697C7.45917 8.08002 6.80391 8.35136 6.12071 8.3513C5.4375 8.35123 4.7823 8.07976 4.29925 7.59661ZM4.68992 5.77633C4.69011 6.01163 4.74831 6.24325 4.85937 6.45068C4.97044 6.65812 5.13094 6.83497 5.32666 6.96557C5.52239 7.09617 5.7473 7.17649 5.98147 7.19943C6.21565 7.22236 6.45187 7.1872 6.66921 7.09706C6.88656 7.00691 7.07832 6.86456 7.22752 6.68262C7.37672 6.50067 7.47876 6.28474 7.52459 6.05395C7.57042 5.82316 7.55864 5.58463 7.49028 5.35948C7.42193 5.13433 7.29911 4.92951 7.1327 4.76315C6.93249 4.563 6.67739 4.42672 6.39971 4.37158C6.12202 4.31643 5.83421 4.34489 5.57271 4.45335C5.3112 4.56182 5.08773 4.74541 4.93059 4.98091C4.77346 5.2164 4.6897 5.49322 4.68992 5.77633ZM16.1382 13.2177C16.1381 13.8137 15.9313 14.3911 15.5532 14.8517C15.175 15.3123 14.6489 15.6275 14.0644 15.7436C13.4798 15.8598 12.8731 15.7696 12.3476 15.4886C11.8221 15.2076 11.4103 14.753 11.1824 14.2024C10.9544 13.6518 10.9245 13.0392 11.0976 12.4689C11.2706 11.8987 11.6361 11.4061 12.1317 11.0751C12.6272 10.7441 13.2222 10.5952 13.8153 10.6537C14.4083 10.7122 14.9628 10.9746 15.3841 11.396C15.624 11.6347 15.8142 11.9186 15.9437 12.2313C16.0731 12.544 16.1393 12.8793 16.1382 13.2177ZM14.9934 13.2177C14.9935 12.8867 14.8787 12.5658 14.6688 12.3098C14.4588 12.0538 14.1665 11.8786 13.8418 11.8139C13.5171 11.7493 13.18 11.7992 12.888 11.9552C12.596 12.1113 12.3671 12.3637 12.2404 12.6696C12.1136 12.9754 12.0968 13.3158 12.1929 13.6326C12.2889 13.9494 12.4919 14.2232 12.7671 14.4072C13.0424 14.5911 13.3729 14.674 13.7024 14.6416C14.0319 14.6092 14.34 14.4636 14.5741 14.2295C14.7074 14.0969 14.8131 13.9393 14.8851 13.7656C14.9571 13.5919 14.9939 13.4057 14.9934 13.2177Z" fill="#46889A"/>
</svg>
