<svg width="19" height="20" viewBox="0 0 19 20" fill="none" xmlns="http://www.w3.org/2000/svg">
<path d="M16.4324 16.4642L12.8498 12.8823C13.8881 11.6357 14.4059 10.0367 14.2954 8.41798C14.1849 6.79929 13.4546 5.28553 12.2564 4.19158C11.0582 3.09763 9.48441 2.50773 7.86237 2.5446C6.24034 2.58146 4.69495 3.24225 3.5477 4.3895C2.40045 5.53675 1.73966 7.08213 1.7028 8.70417C1.66594 10.3262 2.25584 11.9 3.34978 13.0982C4.44373 14.2964 5.9575 15.0267 7.57619 15.1372C9.19488 15.2477 10.7939 14.7299 12.0405 13.6916L15.6224 17.2742C15.6756 17.3273 15.7387 17.3695 15.8082 17.3983C15.8777 17.4271 15.9522 17.4419 16.0274 17.4419C16.1026 17.4419 16.1771 17.4271 16.2466 17.3983C16.316 17.3695 16.3792 17.3273 16.4324 17.2742C16.4855 17.221 16.5277 17.1578 16.5565 17.0884C16.5853 17.0189 16.6001 16.9444 16.6001 16.8692C16.6001 16.794 16.5853 16.7195 16.5565 16.65C16.5277 16.5805 16.4855 16.5174 16.4324 16.4642ZM2.86182 8.85536C2.86182 7.83644 3.16396 6.8404 3.73004 5.9932C4.29612 5.146 5.10072 4.48569 6.04207 4.09577C6.98343 3.70585 8.01927 3.60382 9.01861 3.8026C10.018 4.00139 10.9359 4.49204 11.6564 5.21253C12.3769 5.93301 12.8675 6.85096 13.0663 7.8503C13.2651 8.84964 13.1631 9.88548 12.7731 10.8268C12.3832 11.7682 11.7229 12.5728 10.8757 13.1389C10.0285 13.705 9.03248 14.0071 8.01356 14.0071C6.6477 14.0056 5.33821 13.4623 4.3724 12.4965C3.40659 11.5307 2.86333 10.2212 2.86182 8.85536Z" fill="#7A7A7A"/>
</svg>
